<svg xmlns="http://www.w3.org/2000/svg" viewBox="0 0 108 108" width="108" height="108">
  <rect width="108" height="108" rx="24" ry="24" fill="#E0F2F1" />
  <g transform="translate(29.7, 24.3) scale(0.45)">
    <path fill="#006B75" d="M54,12L12,30v30c0,27.5 18.2,52.8 42,60c23.8,-7.2 42,-32.5 42,-60V30L54,12z"/>
    <g transform="translate(30, 30) scale(2)">
      <path fill="#FFFFFF" d="M12,2C6.48,2 2,6.48 2,12s4.48,10 10,10 10,-4.48 10,-10S17.52,2 12,2zM4,12c0,-4.42 3.58,-8 8,-8 1.85,0 3.55,0.63 4.9,1.69L5.69,16.9C4.63,15.55 4,13.85 4,12zM12,20c-1.85,0 -3.55,-0.63 -4.9,-1.69L18.31,7.1C19.37,8.45 20,10.15 20,12c0,4.42 -3.58,8 -8,8z"/>
    </g>
  </g>
</svg>
